<svg width="310" height="141" viewBox="0 0 310 141" fill="none" xmlns="http://www.w3.org/2000/svg">
<rect x="0.421875" width="309.207" height="141" rx="13.7332" fill="#FFB3C7"/>
<path d="M70.7623 44.8673H58.7663C58.7663 54.8107 54.2476 63.8847 46.3937 69.8616L41.6599 73.4477L60.0574 98.7679H75.1734L58.2284 75.4581C66.2436 67.4165 70.7623 56.5494 70.7623 44.8673ZM27.8887 44.8673H40.1537V98.7679H27.8887V44.8673ZM78.7238 44.8673H90.2895V98.7679H78.7238V44.8673ZM191.745 60.4616C187.333 60.4616 183.138 61.8199 180.34 65.6777V61.4939H169.366V98.7679H180.502V79.2072C180.502 73.5564 184.267 70.7853 188.786 70.7853C193.627 70.7853 196.425 73.7194 196.425 79.1529V98.8223H207.452V75.0777C207.452 66.3841 200.621 60.4616 191.745 60.4616ZM125.255 61.4939V63.8847C122.135 61.7113 118.37 60.4616 114.281 60.4616C103.523 60.4616 94.8081 69.2639 94.8081 80.1309C94.8081 90.998 103.523 99.8003 114.281 99.8003C118.37 99.8003 122.135 98.5506 125.255 96.3772V98.7679H136.283V61.4939H125.255ZM115.196 89.6939C109.655 89.6939 105.19 85.4014 105.19 80.1309C105.19 74.8604 109.655 70.5679 115.196 70.5679C120.737 70.5679 125.202 74.8604 125.202 80.1309C125.202 85.4014 120.737 89.6939 115.196 89.6939ZM153.39 66.3298V61.4939H142.093V98.7679H153.443V81.3806C153.443 75.5124 159.737 72.361 164.095 72.361H164.202V61.4939C159.737 61.4939 155.595 63.45 153.39 66.3298ZM241.773 61.4939V63.8847C238.653 61.7113 234.887 60.4616 230.799 60.4616C220.04 60.4616 211.325 69.2639 211.325 80.1309C211.325 90.998 220.04 99.8003 230.799 99.8003C234.887 99.8003 238.653 98.5506 241.773 96.3772V98.7679H252.8V61.4939H241.773ZM231.713 89.6939C226.173 89.6939 221.708 85.4014 221.708 80.1309C221.708 74.8604 226.173 70.5679 231.713 70.5679C237.254 70.5679 241.719 74.8604 241.719 80.1309C241.773 85.4014 237.254 89.6939 231.713 89.6939ZM261.354 62.5806C261.354 62.0373 260.977 61.7113 260.385 61.7113H259.363V64.5367H259.847V63.5043H260.385L260.816 64.5367H261.354L260.87 63.3957C261.192 63.2327 261.354 62.961 261.354 62.5806ZM260.385 63.0153H259.847V62.146H260.385C260.708 62.146 260.87 62.309 260.87 62.5806C260.87 62.8523 260.762 63.0153 260.385 63.0153Z" fill="black"/>
<path d="M265.29 41.1997C263.121 41.1997 261.354 42.9928 261.354 45.1933C261.434 47.3939 263.121 49.187 265.29 49.187C267.46 49.187 269.227 47.3939 269.227 45.1933C269.227 42.9928 267.46 41.1997 265.29 41.1997ZM265.29 48.4535C263.523 48.4535 262.157 46.9864 262.157 45.1933C262.157 43.4003 263.603 41.9332 265.29 41.9332C267.058 41.9332 268.424 43.4003 268.424 45.1933C268.424 46.9864 266.978 48.4535 265.29 48.4535ZM271.798 78.7725C266.094 78.7725 261.434 83.4997 261.434 89.2864C261.434 95.0731 266.094 99.8003 271.798 99.8003C277.503 99.8003 282.163 95.0731 282.163 89.2864C282.163 83.4182 277.503 78.7725 271.798 78.7725Z" fill="black"/>
</svg>
