<svg width="60" height="60" viewBox="0 0 60 60" fill="none" xmlns="http://www.w3.org/2000/svg">
<rect width="60" height="60" rx="30" fill="#7D7878"/>
<path d="M29.4586 16.7625C35.3328 16.7625 39.2631 19.8052 39.2631 24.3272C39.2631 28.2152 36.009 30.4972 33.9382 32.4412C32.3746 33.8781 32.121 34.7233 32.121 36.1179V36.8786H27.6414V36.1179C27.6414 33.2019 28.9514 31.8496 31.0645 29.9056C32.5436 28.5955 34.3186 27.2432 34.3186 24.792C34.3186 22.3409 32.2901 20.6927 29.2895 20.6927C27.0074 20.6927 24.8099 22.3831 24.2182 24.5385L23.8801 24.6652L20.3302 23.651L20.288 23.3129C21.3867 19.3826 25.1057 16.7625 29.4586 16.7625ZM29.8812 38.9072C31.6561 38.9072 33.0507 40.3018 33.0507 42.0767C33.0507 43.8094 31.6561 45.2463 29.8812 45.2463C28.1485 45.2463 26.7116 43.8094 26.7116 42.0767C26.7116 40.3018 28.1485 38.9072 29.8812 38.9072Z" fill="white"/>
</svg>
