<svg xmlns="http://www.w3.org/2000/svg" viewBox="0 0 640 512" width="22">
  <path class="fa-primary" d="M64 48C64 21.49 85.49 0 112 0H368C394.5 0 416 21.49 416 48V96H466.7C483.7 96 499.1 102.7 512 114.7L589.3 192C601.3 204 608 220.3 608 237.3V352C625.7 352 640 366.3 640 384C640 401.7 625.7 416 608 416H574.9C567.1 361.7 520.4 320 464 320C407.6 320 360.9 361.7 353.1 416H286.9C279.1 361.7 232.4 320 176 320C127.9 320 86.84 350.4 70.99 392.1C66.56 385.7 64 377.1 64 368V256H208C216.8 256 224 248.8 224 240C224 231.2 216.8 224 208 224H64V192H240C248.8 192 256 184.8 256 176C256 167.2 248.8 160 240 160H64V128H272C280.8 128 288 120.8 288 112C288 103.2 280.8 96 272 96H64L64 48zM544 256V237.3L466.7 160H416V256H544z"/>
</svg>
